<svg width="1920" height="1081" viewBox="0 0 1920 1081" fill="none" xmlns="http://www.w3.org/2000/svg">
<g clip-path="url(#clip0_1_3137)">
<rect width="1920" height="1080" transform="translate(0 0.5)" fill="#1A1B22"/>
<path d="M1845 195.5C1845 454.522 1635.02 664.5 1376 664.5C1350.91 664.5 1326.28 662.53 1302.25 658.735L1299.04 664.298C1324.09 668.378 1349.8 670.5 1376 670.5C1638.34 670.5 1851 457.835 1851 195.5C1851 -66.8353 1638.34 -279.5 1376 -279.5C1113.66 -279.5 901 -66.8353 901 195.5C901 421.913 1059.41 611.327 1271.45 658.956L1274.59 653.508C1064.32 607.16 907 419.702 907 195.5C907 -63.5215 1116.98 -273.5 1376 -273.5C1635.02 -273.5 1845 -63.5215 1845 195.5Z" fill="white"/>
<path d="M1422.44 386.112L1073 991.36L1515.48 1246.82L1880.28 614.965L1463.01 374.054L1460.01 379.25L1872.09 617.161L1513.28 1238.63L1081.2 989.164L1427.64 389.112L1422.44 386.112Z" fill="#5A9BFF"/>
<path d="M-394.3 700.948L-145.231 84.2276L295.132 582.686L-394.3 700.948Z" stroke="white" stroke-width="4"/>
</g>
<defs>
<clipPath id="clip0_1_3137">
<rect width="1920" height="1080" fill="white" transform="translate(0 0.5)"/>
</clipPath>
</defs>
</svg>
