<?xml version="1.0" encoding="UTF-8"?>
<svg xmlns="http://www.w3.org/2000/svg" xmlns:xlink="http://www.w3.org/1999/xlink" width="1440px" height="811px" viewBox="0 0 1440 811" version="1.1">
<defs>
<clipPath id="clip1">
  <path d="M 0 0.375 L 1440 0.375 L 1440 810.625 L 0 810.625 Z M 0 0.375 "/>
</clipPath>
<clipPath id="clip2">
  <path d="M 675 0.375 L 1389 0.375 L 1389 504 L 675 504 Z M 675 0.375 "/>
</clipPath>
<clipPath id="clip3">
  <path d="M 804 280 L 1411 280 L 1411 810.625 L 804 810.625 Z M 804 280 "/>
</clipPath>
</defs>
<g id="surface1">
<g clip-path="url(#clip1)" clip-rule="nonzero">
<path style=" stroke:none;fill-rule:nonzero;fill:rgb(10.196078%,10.588235%,13.333333%);fill-opacity:1;" d="M 0 0.375 L 1440 0.375 L 1440 810.625 L 0 810.625 Z M 0 0.375 "/>
</g>
<g clip-path="url(#clip2)" clip-rule="nonzero">
<path style=" stroke:none;fill-rule:nonzero;fill:rgb(100%,100%,100%);fill-opacity:1;" d="M 1383.75 146.671875 C 1383.75 340.996094 1226.265625 498.527344 1032 498.527344 C 1013.183594 498.527344 994.710938 497.050781 976.6875 494.203125 L 974.28125 498.378906 C 993.066406 501.4375 1012.351562 503.03125 1032 503.03125 C 1228.753906 503.03125 1388.25 343.480469 1388.25 146.671875 C 1388.25 -50.140625 1228.753906 -209.691406 1032 -209.691406 C 835.246094 -209.691406 675.75 -50.140625 675.75 146.671875 C 675.75 316.53125 794.558594 458.636719 953.585938 494.371094 L 955.941406 490.28125 C 798.238281 455.511719 680.25 314.875 680.25 146.671875 C 680.25 -47.65625 837.734375 -205.1875 1032 -205.1875 C 1226.265625 -205.1875 1383.75 -47.65625 1383.75 146.671875 Z M 1383.75 146.671875 "/>
</g>
<g clip-path="url(#clip3)" clip-rule="nonzero">
<path style=" stroke:none;fill-rule:nonzero;fill:rgb(35.294118%,60.784314%,100%);fill-opacity:1;" d="M 1066.828125 289.671875 L 804.75 743.75 L 1136.609375 935.402344 L 1410.210938 461.367188 L 1097.257812 280.628906 L 1095.007812 284.523438 L 1404.066406 463.011719 L 1134.960938 929.257812 L 810.898438 742.101562 L 1070.730469 291.925781 Z M 1066.828125 289.671875 "/>
</g>
<path style="fill:none;stroke-width:4;stroke-linecap:butt;stroke-linejoin:miter;stroke:rgb(100%,100%,100%);stroke-opacity:1;stroke-miterlimit:4;" d="M -394.302083 700.950524 L -145.229167 84.229236 L 295.130208 582.684909 Z M -394.302083 700.950524 " transform="matrix(0.75,0,0,0.750231,0,0)"/>
</g>
</svg>
