<svg width="24" height="24" viewBox="0 0 24 24" fill="none" xmlns="http://www.w3.org/2000/svg">
<path d="M12 12V3" stroke="white" stroke-width="2" stroke-linecap="round" stroke-linejoin="round"/>
<path d="M19.7907 7.5L4.20947 16.5" stroke="white" stroke-width="2" stroke-linecap="round" stroke-linejoin="round"/>
<path d="M3.15009 13.65C3.04777 13.106 2.99755 12.5535 3.00009 12C2.99891 10.1387 3.57545 8.32287 4.65016 6.80317C5.72487 5.28346 7.24477 4.13477 9.00009 3.51562V10.2656L3.15009 13.65Z" stroke="white" stroke-width="2" stroke-linecap="round" stroke-linejoin="round"/>
<path d="M12 3C13.5771 3.00018 15.1264 3.41474 16.4928 4.20215C17.8591 4.98957 18.9946 6.12219 19.7855 7.48658C20.5764 8.85096 20.9948 10.3992 20.999 11.9762C21.0032 13.5533 20.5929 15.1037 19.8092 16.4722C19.0256 17.8408 17.8961 18.9794 16.5339 19.774C15.1717 20.5686 13.6246 20.9914 12.0476 20.9999C10.4706 21.0084 8.91903 20.6024 7.54833 19.8225C6.17763 19.0426 5.03592 17.9163 4.23755 16.5563" stroke="white" stroke-width="2" stroke-linecap="round" stroke-linejoin="round"/>
</svg>
