<svg width="20" height="20" viewBox="0 0 20 20" fill="none" xmlns="http://www.w3.org/2000/svg">
<path d="M8.75001 11.5626C8.50137 11.5626 8.26291 11.6614 8.08709 11.8372C7.91128 12.013 7.81251 12.2514 7.81251 12.5001V13.9845L6.13594 12.3102C5.87406 12.0497 5.66644 11.7399 5.5251 11.3986C5.38375 11.0573 5.3115 10.6914 5.31251 10.322V7.65165C5.93802 7.4305 6.46521 6.99534 6.80091 6.42308C7.13661 5.85081 7.25919 5.1783 7.147 4.5244C7.03481 3.8705 6.69506 3.27731 6.18781 2.84968C5.68056 2.42204 5.03846 2.1875 4.37501 2.1875C3.71155 2.1875 3.06945 2.42204 2.5622 2.84968C2.05495 3.27731 1.7152 3.8705 1.60301 4.5244C1.49082 5.1783 1.6134 5.85081 1.9491 6.42308C2.2848 6.99534 2.81199 7.4305 3.43751 7.65165V10.322C3.43587 10.9377 3.55634 11.5476 3.79195 12.1165C4.02757 12.6853 4.37364 13.2018 4.81016 13.636L6.48438 15.3126H5.00001C4.75137 15.3126 4.51291 15.4114 4.33709 15.5872C4.16128 15.763 4.06251 16.0014 4.06251 16.2501C4.06251 16.4987 4.16128 16.7372 4.33709 16.913C4.51291 17.0888 4.75137 17.1876 5.00001 17.1876H8.75001C8.99865 17.1876 9.2371 17.0888 9.41292 16.913C9.58873 16.7372 9.68751 16.4987 9.68751 16.2501V12.5001C9.68751 12.2514 9.58873 12.013 9.41292 11.8372C9.2371 11.6614 8.99865 11.5626 8.75001 11.5626ZM4.37501 4.06259C4.56043 4.06259 4.74168 4.11757 4.89585 4.22059C5.05002 4.3236 5.17019 4.47002 5.24114 4.64132C5.3121 4.81263 5.33067 5.00113 5.29449 5.18299C5.25832 5.36484 5.16903 5.53189 5.03792 5.663C4.90681 5.79411 4.73976 5.8834 4.5579 5.91957C4.37605 5.95575 4.18755 5.93718 4.01624 5.86622C3.84493 5.79527 3.69852 5.67511 3.5955 5.52093C3.49249 5.36676 3.43751 5.18551 3.43751 5.00009C3.43751 4.75145 3.53628 4.51299 3.71209 4.33717C3.88791 4.16136 4.12637 4.06259 4.37501 4.06259ZM16.5625 12.3485V9.67821C16.5641 9.0625 16.4437 8.45257 16.2081 7.88372C15.9724 7.31487 15.6264 6.79838 15.1899 6.36415L13.5156 4.68759H15C15.2486 4.68759 15.4871 4.58882 15.6629 4.413C15.8387 4.23719 15.9375 3.99873 15.9375 3.75009C15.9375 3.50145 15.8387 3.26299 15.6629 3.08718C15.4871 2.91136 15.2486 2.81259 15 2.81259H11.25C11.0014 2.81259 10.7629 2.91136 10.5871 3.08718C10.4113 3.26299 10.3125 3.50145 10.3125 3.75009V7.50009C10.3125 7.74873 10.4113 7.98718 10.5871 8.163C10.7629 8.33882 11.0014 8.43759 11.25 8.43759C11.4986 8.43759 11.7371 8.33882 11.9129 8.163C12.0887 7.98718 12.1875 7.74873 12.1875 7.50009V6.01571L13.8641 7.69227C14.1257 7.95252 14.3331 8.262 14.4745 8.60287C14.6158 8.94373 14.6882 9.30921 14.6875 9.67821V12.3485C14.062 12.5697 13.5348 13.0048 13.1991 13.5771C12.8634 14.1494 12.7408 14.8219 12.853 15.4758C12.9652 16.1297 13.3049 16.7229 13.8122 17.1505C14.3195 17.5781 14.9616 17.8127 15.625 17.8127C16.2885 17.8127 16.9306 17.5781 17.4378 17.1505C17.9451 16.7229 18.2848 16.1297 18.397 15.4758C18.5092 14.8219 18.3866 14.1494 18.0509 13.5771C17.7152 13.0048 17.188 12.5697 16.5625 12.3485ZM15.625 15.9376C15.4396 15.9376 15.2583 15.8826 15.1042 15.7796C14.95 15.6766 14.8298 15.5302 14.7589 15.3589C14.6879 15.1875 14.6693 14.999 14.7055 14.8172C14.7417 14.6353 14.831 14.4683 14.9621 14.3372C15.0932 14.2061 15.2603 14.1168 15.4421 14.0806C15.624 14.0444 15.8125 14.063 15.9838 14.134C16.1551 14.2049 16.3015 14.3251 16.4045 14.4792C16.5075 14.6334 16.5625 14.8147 16.5625 15.0001C16.5625 15.2487 16.4637 15.4872 16.2879 15.663C16.1121 15.8388 15.8736 15.9376 15.625 15.9376Z" fill="#1D6BF3"/>
</svg>
