<svg width="24" height="25" viewBox="0 0 24 25" fill="none" xmlns="http://www.w3.org/2000/svg">
<g clip-path="url(#clip0_699_30355)">
<path d="M22.3233 9.05946H20.8106V7.54667C20.8106 6.62215 20.0585 5.86999 19.134 5.86999H17.6212V4.35734C17.6212 3.42977 16.8687 2.68066 15.9446 2.68066H1.67667C0.754453 2.68071 0 3.42743 0 4.35734V14.2635C0 15.188 0.752156 15.9402 1.67667 15.9402H3.18937V17.453C3.18937 18.3775 3.94153 19.1297 4.86605 19.1297H6.37875V20.6424C6.37875 21.5669 7.13091 22.319 8.05542 22.319H22.3234C23.2479 22.319 24 21.5669 24 20.6424V10.7361C24 9.81162 23.2478 9.05946 22.3233 9.05946ZM14.7343 4.35499L8.81063 10.1603L2.88708 4.35513L14.7343 4.35499ZM1.67442 14.2635L1.67475 5.51145L8.22464 11.9305C8.55019 12.2495 9.07116 12.2494 9.39661 11.9305L15.9465 5.5114L15.9447 14.2658L1.67442 14.2635ZM4.8638 17.4529V15.9402H15.9447C16.8692 15.9402 17.6213 15.1881 17.6213 14.2635V7.5447L19.1362 7.54517C19.1362 7.54517 19.1362 7.54568 19.1362 7.54671L19.134 17.4552L4.8638 17.4529ZM22.3233 20.6445L8.05317 20.6423V19.1296H19.134C20.0586 19.1296 20.8107 18.3774 20.8107 17.4529V10.7341L22.3256 10.7345C22.3256 10.7345 22.3257 10.7351 22.3257 10.7361L22.3233 20.6445Z" fill="#B5B5B7"/>
</g>
<defs>
<clipPath id="clip0_699_30355">
<rect width="24" height="24" fill="white" transform="translate(0 0.5)"/>
</clipPath>
</defs>
</svg>
