<svg width="24" height="24" viewBox="0 0 24 24" fill="none" xmlns="http://www.w3.org/2000/svg">
<path d="M12 16.5C14.4853 16.5 16.5 14.4853 16.5 12C16.5 9.51472 14.4853 7.5 12 7.5C9.51472 7.5 7.5 9.51472 7.5 12C7.5 14.4853 9.51472 16.5 12 16.5Z" stroke="#B5B5B7" stroke-width="2" stroke-linecap="round" stroke-linejoin="round"/>
<path d="M17.2219 6.10315C17.4594 6.3219 17.6844 6.5469 17.8969 6.77815L20.4563 7.14377C20.8733 7.868 21.1947 8.6432 21.4125 9.45002L19.8563 11.5219C19.8563 11.5219 19.8844 12.1594 19.8563 12.4782L21.4125 14.55C21.1957 15.3572 20.8742 16.1325 20.4563 16.8563L17.8969 17.2219C17.8969 17.2219 17.4563 17.6813 17.2219 17.8969L16.8563 20.4563C16.132 20.8733 15.3568 21.1947 14.55 21.4125L12.4782 19.8563C12.16 19.8844 11.84 19.8844 11.5219 19.8563L9.45002 21.4125C8.64286 21.1957 7.86753 20.8742 7.14377 20.4563L6.77815 17.8969C6.5469 17.6781 6.3219 17.4531 6.10315 17.2219L3.54377 16.8563C3.12676 16.132 2.80533 15.3568 2.58752 14.55L4.14377 12.4782C4.14377 12.4782 4.11565 11.8406 4.14377 11.5219L2.58752 9.45002C2.80432 8.64286 3.1258 7.86753 3.54377 7.14377L6.10315 6.77815C6.3219 6.5469 6.5469 6.3219 6.77815 6.10315L7.14377 3.54377C7.868 3.12676 8.6432 2.80533 9.45002 2.58752L11.5219 4.14377C11.84 4.11564 12.16 4.11564 12.4782 4.14377L14.55 2.58752C15.3572 2.80432 16.1325 3.1258 16.8563 3.54377L17.2219 6.10315Z" stroke="#B5B5B7" stroke-width="2" stroke-linecap="round" stroke-linejoin="round"/>
</svg>
