<svg width="24" height="24" viewBox="0 0 24 24" fill="none" xmlns="http://www.w3.org/2000/svg">
<path d="M12.2631 3C12.1697 2.99983 12.0775 3.02122 11.9933 3.06259C11.909 3.10396 11.8349 3.16426 11.7762 3.23905L11.6651 3.32387C9.51193 2.63758 7.05539 3.14137 5.34529 4.83782C4.62917 5.53745 4.09642 6.41212 3.79657 7.38053C3.49673 8.34894 3.4395 9.37968 3.63021 10.377C3.60901 10.3962 3.5882 10.4159 3.5678 10.4361L2.59542 11.4C2.40732 11.5837 2.25752 11.8049 2.15516 12.0502C2.05279 12.2954 2 12.5596 2 12.8265C2 13.0935 2.05279 13.3576 2.15516 13.6029C2.25752 13.8481 2.40732 14.0694 2.59542 14.2531C3.09222 14.7466 3.78125 14.9317 4.42159 14.8083C4.50023 15.1797 4.68373 15.5331 4.97457 15.821C5.35778 16.2014 5.85582 16.3981 6.35762 16.4122C6.37135 16.9096 6.56982 17.4031 6.95303 17.7835C7.33624 18.1639 7.83554 18.3618 8.33733 18.3747C8.34981 18.8721 8.54953 19.3668 8.93274 19.7473C9.29961 20.1057 9.78019 20.3152 10.2855 20.337C10.7909 20.3587 11.2867 20.1912 11.6814 19.8655L12.2269 20.4053C13.0257 21.1982 14.3214 21.1982 15.1203 20.4053C15.5022 20.0274 15.7007 19.5365 15.7182 19.0404C16.2313 19.0268 16.7209 18.8164 17.0913 18.4505C17.4732 18.0714 17.6717 17.5804 17.6867 17.0844C18.194 17.066 18.677 16.8561 19.0435 16.4945C19.3468 16.195 19.5341 15.8236 19.6065 15.4355C19.9278 15.4935 20.2578 15.473 20.57 15.3757C20.8822 15.2783 21.1678 15.1069 21.4039 14.8751C21.5922 14.6914 21.7422 14.4701 21.8447 14.2247C21.9471 13.9793 22 13.715 22 13.4479C22 13.1808 21.9471 12.9165 21.8447 12.6711C21.7422 12.4258 21.5922 12.2045 21.4039 12.0207L20.5052 11.1301L20.6887 10.4232C21.0599 8.97814 20.8719 7.44113 20.1644 6.13586C19.1209 4.20037 17.0962 3.00514 14.9068 3.00514H13.3715C13.3054 3.00177 13.2392 3.00005 13.173 3H12.2631ZM15.325 7.77575L18.327 10.7535L18.3308 10.7561L20.5039 12.9126C20.5745 12.9816 20.6308 13.0646 20.6692 13.1566C20.7076 13.2486 20.7274 13.3478 20.7274 13.4479C20.7274 13.5481 20.7076 13.6472 20.6692 13.7392C20.6308 13.8313 20.5745 13.9143 20.5039 13.9832C20.3581 14.1254 20.1649 14.2046 19.9641 14.2046C19.7632 14.2046 19.57 14.1254 19.4242 13.9832L17.7753 12.3484C17.6544 12.2291 17.4934 12.1624 17.3259 12.1624C17.1584 12.1624 16.9974 12.2291 16.8766 12.3484L16.8591 12.3639C16.8002 12.4213 16.7534 12.4904 16.7213 12.5671C16.6893 12.6438 16.6728 12.7264 16.6728 12.8098C16.6728 12.8933 16.6893 12.9759 16.7213 13.0526C16.7534 13.1292 16.8002 13.1984 16.8591 13.2558L18.1448 14.5307C18.4443 14.8263 18.4443 15.3069 18.1448 15.6038C18.0122 15.7332 17.84 15.811 17.6578 15.8239C17.4756 15.8368 17.2947 15.784 17.1462 15.6745C17.0222 15.5823 16.8708 15.5377 16.7182 15.5485C16.5657 15.5593 16.4216 15.6248 16.3111 15.7336C16.2031 15.84 16.1379 15.9843 16.1284 16.1378C16.1189 16.2914 16.1658 16.443 16.2599 16.5626C16.372 16.7071 16.4272 16.8896 16.4147 17.0741C16.4023 17.2586 16.3229 17.4315 16.1925 17.5586C16.0581 17.6899 15.8829 17.7681 15.6979 17.7793C15.5129 17.7906 15.33 17.7343 15.1814 17.6203C15.0581 17.525 14.9061 17.4777 14.7521 17.4866C14.5982 17.4956 14.4523 17.5602 14.3401 17.6691C14.2307 17.7753 14.1643 17.9202 14.1544 18.0747C14.1444 18.2291 14.1916 18.3818 14.2865 18.5019C14.4011 18.6484 14.458 18.8339 14.4457 19.0216C14.4335 19.2093 14.353 19.3853 14.2203 19.5146C14.0725 19.659 13.8766 19.7395 13.6729 19.7395C13.4693 19.7395 13.2733 19.659 13.1256 19.5146L12.5851 18.9787L12.7823 18.7834C12.9706 18.5996 13.1206 18.3783 13.2231 18.133C13.3255 17.8876 13.3784 17.6233 13.3784 17.3562C13.3784 17.0891 13.3255 16.8248 13.2231 16.5794C13.1206 16.334 12.9706 16.1127 12.7823 15.929C12.4093 15.5609 11.9158 15.3499 11.3993 15.3378C11.3841 14.8174 11.1702 14.3241 10.8039 13.9652C10.4303 13.5973 9.9364 13.3868 9.41955 13.3753C9.4044 12.8549 9.19044 12.3617 8.82414 12.0027C8.58434 11.7677 8.29362 11.5949 7.97606 11.4986C7.65849 11.4023 7.32321 11.3852 6.99797 11.4488C6.91569 11.0621 6.72314 10.7095 6.44499 10.4361C6.23177 10.2266 5.97769 10.0662 5.69963 9.96562C5.42157 9.86502 5.1259 9.8265 4.83227 9.85261C4.73393 9.09952 4.8105 8.33314 5.0557 7.61643C5.3009 6.89972 5.70773 6.25312 6.24278 5.72974C6.78344 5.19791 7.43168 4.79583 8.14104 4.55231C8.85039 4.30878 9.60328 4.22985 10.3458 4.32117L8.52956 5.69632C8.29718 5.87017 8.10143 6.0907 7.95414 6.34461C7.80684 6.59851 7.71105 6.88051 7.67256 7.17359C7.63406 7.46667 7.65365 7.76474 7.73015 8.04981C7.80664 8.33487 7.93846 8.60102 8.11764 8.83218C8.48001 9.29998 9.0036 9.60593 9.5795 9.68636C10.1554 9.76679 10.7392 9.61551 11.2095 9.264L13.1768 7.77704H15.3237L15.325 7.77575ZM9.26852 6.7309L12.504 4.28519H13.173C13.2342 4.28485 13.2954 4.28657 13.3565 4.29033H14.9068C16.6594 4.29033 18.2584 5.24779 19.0735 6.76046C19.6252 7.78346 19.77 8.97226 19.4816 10.0942L19.4779 10.1071L16.0327 6.67949C15.916 6.55889 15.7575 6.49094 15.5921 6.49057H12.9708C12.8383 6.49083 12.7094 6.53449 12.6026 6.61523L10.4706 8.22685C10.2612 8.38125 10.0024 8.44742 9.74711 8.41182C9.49187 8.37622 9.25949 8.24155 9.09751 8.03536C9.02202 7.93962 8.96637 7.82899 8.93398 7.71028C8.90159 7.59156 8.89314 7.46728 8.90916 7.34507C8.92518 7.22287 8.96533 7.10534 9.02713 6.99971C9.08893 6.89408 9.17108 6.8026 9.26852 6.7309ZM9.82024 17.7964L9.83272 17.7835L10.8039 16.8196L10.8151 16.8093C10.9617 16.6721 11.1534 16.597 11.3515 16.5991C11.5497 16.6012 11.7398 16.6805 11.8836 16.8209C11.9542 16.8898 12.0104 16.9728 12.0488 17.0649C12.0872 17.1569 12.1071 17.256 12.1071 17.3562C12.1071 17.4563 12.0872 17.5555 12.0488 17.6475C12.0104 17.7395 11.9542 17.8225 11.8836 17.8915L10.9112 18.8553C10.7654 18.9975 10.5722 19.0768 10.3713 19.0768C10.1705 19.0768 9.9773 18.9975 9.83147 18.8553C9.76181 18.7874 9.70609 18.7058 9.66764 18.6153C9.62918 18.5249 9.60876 18.4273 9.6076 18.3286C9.60643 18.2298 9.62455 18.1318 9.66086 18.0404C9.69717 17.949 9.75095 17.866 9.81899 17.7964H9.82024ZM9.91636 15.9174L9.90387 15.929L8.93274 16.8929L8.92026 16.9044C8.77354 17.0412 8.58208 17.1158 8.38419 17.1134C8.1863 17.111 7.99659 17.0318 7.85301 16.8916C7.78321 16.8234 7.72746 16.7414 7.6891 16.6505C7.65074 16.5597 7.63054 16.4618 7.62973 16.3627C7.62891 16.2636 7.64749 16.1654 7.68435 16.0739C7.72121 15.9824 7.7756 15.8994 7.84427 15.83L7.85301 15.821L8.82414 14.8571L8.83288 14.8481C8.97935 14.7098 9.17133 14.6338 9.3701 14.6354C9.56887 14.6371 9.75962 14.7163 9.90387 14.8571C9.97373 14.9251 10.0296 15.0067 10.0682 15.0974C10.1068 15.188 10.1272 15.2856 10.1284 15.3845C10.1296 15.4835 10.1114 15.5816 10.075 15.6732C10.0385 15.7647 9.9846 15.8478 9.91636 15.9174ZM7.92541 13.9652L6.95303 14.9291L6.94429 14.9381C6.79783 15.0765 6.60584 15.1525 6.40707 15.1508C6.20831 15.1491 6.01755 15.0699 5.8733 14.9291C5.80271 14.8602 5.74648 14.7772 5.70806 14.6851C5.66964 14.5931 5.64983 14.494 5.64983 14.3938C5.64983 14.2937 5.66964 14.1945 5.70806 14.1025C5.74648 14.0105 5.80271 13.9275 5.8733 13.8585L6.84443 12.8947C6.99032 12.7521 7.18379 12.6726 7.38492 12.6726C7.58605 12.6726 7.77952 12.7521 7.92541 12.8947C7.99541 12.9629 8.05132 13.0449 8.08979 13.1359C8.12827 13.2269 8.14852 13.3249 8.14934 13.4242C8.15016 13.5234 8.13152 13.6218 8.09454 13.7134C8.05757 13.8051 8.00301 13.8881 7.93415 13.9575L7.92541 13.9652ZM5.54626 12.3986L4.57513 13.3625C4.42938 13.5053 4.23586 13.585 4.03464 13.585C3.83342 13.585 3.6399 13.5053 3.49415 13.3625C3.42336 13.2935 3.36697 13.2104 3.32844 13.1183C3.2899 13.0261 3.27002 12.9269 3.27002 12.8265C3.27002 12.7262 3.2899 12.6269 3.32844 12.5348C3.36697 12.4426 3.42336 12.3596 3.49415 12.2906L4.46653 11.3267C4.61236 11.1845 4.80556 11.1053 5.0064 11.1053C5.20723 11.1053 5.40043 11.1845 5.54626 11.3267C5.61705 11.3957 5.67344 11.4788 5.71198 11.5709C5.75051 11.663 5.77039 11.7623 5.77039 11.8626C5.77039 11.963 5.75051 12.0622 5.71198 12.1544C5.67344 12.2465 5.61705 12.3296 5.54626 12.3986Z" fill="#797981"/>
</svg>
