<svg width="24" height="24" viewBox="0 0 24 24" fill="none" xmlns="http://www.w3.org/2000/svg">
<g clip-path="url(#clip0_324_12926)">
<path d="M1 4.74977H3.736C3.95064 5.5395 4.41917 6.23666 5.06933 6.7337C5.71948 7.23074 6.51512 7.50003 7.3335 7.50003C8.15188 7.50003 8.94752 7.23074 9.59767 6.7337C10.2478 6.23666 10.7164 5.5395 10.931 4.74977H23C23.2652 4.74977 23.5196 4.64441 23.7071 4.45688C23.8946 4.26934 24 4.01499 24 3.74977C24 3.48455 23.8946 3.2302 23.7071 3.04266C23.5196 2.85513 23.2652 2.74977 23 2.74977H10.931C10.7164 1.96004 10.2478 1.26288 9.59767 0.76584C8.94752 0.268803 8.15188 -0.000488281 7.3335 -0.000488281C6.51512 -0.000488281 5.71948 0.268803 5.06933 0.76584C4.41917 1.26288 3.95064 1.96004 3.736 2.74977H1C0.734784 2.74977 0.48043 2.85513 0.292893 3.04266C0.105357 3.2302 0 3.48455 0 3.74977C0 4.01499 0.105357 4.26934 0.292893 4.45688C0.48043 4.64441 0.734784 4.74977 1 4.74977ZM7.333 1.99977C7.67912 1.99977 8.01746 2.10241 8.30525 2.2947C8.59303 2.48699 8.81734 2.7603 8.94979 3.08007C9.08224 3.39985 9.1169 3.75171 9.04937 4.09118C8.98185 4.43065 8.81518 4.74247 8.57044 4.98721C8.3257 5.23195 8.01388 5.39862 7.67441 5.46615C7.33494 5.53367 6.98307 5.49901 6.6633 5.36656C6.34353 5.23411 6.07022 5.0098 5.87793 4.72202C5.68564 4.43423 5.583 4.09589 5.583 3.74977C5.58353 3.2858 5.76807 2.84099 6.09615 2.51292C6.42422 2.18484 6.86903 2.0003 7.333 1.99977Z" fill="#1D6BF3"/>
<path d="M23 10.9998H20.264C20.0497 10.2099 19.5814 9.51244 18.9313 9.0152C18.2812 8.51795 17.4855 8.24854 16.667 8.24854C15.8485 8.24854 15.0528 8.51795 14.4027 9.0152C13.7526 9.51244 13.2843 10.2099 13.07 10.9998H1C0.734784 10.9998 0.48043 11.1051 0.292893 11.2927C0.105357 11.4802 0 11.7346 0 11.9998C0 12.265 0.105357 12.5193 0.292893 12.7069C0.48043 12.8944 0.734784 12.9998 1 12.9998H13.07C13.2843 13.7897 13.7526 14.4871 14.4027 14.9843C15.0528 15.4816 15.8485 15.751 16.667 15.751C17.4855 15.751 18.2812 15.4816 18.9313 14.9843C19.5814 14.4871 20.0497 13.7897 20.264 12.9998H23C23.2652 12.9998 23.5196 12.8944 23.7071 12.7069C23.8946 12.5193 24 12.265 24 11.9998C24 11.7346 23.8946 11.4802 23.7071 11.2927C23.5196 11.1051 23.2652 10.9998 23 10.9998ZM16.667 13.7498C16.3209 13.7498 15.9825 13.6471 15.6948 13.4548C15.407 13.2625 15.1827 12.9892 15.0502 12.6695C14.9178 12.3497 14.8831 11.9978 14.9506 11.6584C15.0181 11.3189 15.1848 11.0071 15.4296 10.7623C15.6743 10.5176 15.9861 10.3509 16.3256 10.2834C16.6651 10.2159 17.0169 10.2505 17.3367 10.383C17.6565 10.5154 17.9298 10.7397 18.1221 11.0275C18.3144 11.3153 18.417 11.6537 18.417 11.9998C18.4165 12.4637 18.2319 12.9085 17.9039 13.2366C17.5758 13.5647 17.131 13.7492 16.667 13.7498Z" fill="#1D6BF3"/>
<path d="M23 19.2498H10.931C10.7164 18.46 10.2478 17.7629 9.59767 17.2658C8.94752 16.7688 8.15188 16.4995 7.3335 16.4995C6.51512 16.4995 5.71948 16.7688 5.06933 17.2658C4.41917 17.7629 3.95064 18.46 3.736 19.2498H1C0.734784 19.2498 0.48043 19.3551 0.292893 19.5427C0.105357 19.7302 0 19.9846 0 20.2498C0 20.515 0.105357 20.7693 0.292893 20.9569C0.48043 21.1444 0.734784 21.2498 1 21.2498H3.736C3.95064 22.0395 4.41917 22.7367 5.06933 23.2337C5.71948 23.7307 6.51512 24 7.3335 24C8.15188 24 8.94752 23.7307 9.59767 23.2337C10.2478 22.7367 10.7164 22.0395 10.931 21.2498H23C23.2652 21.2498 23.5196 21.1444 23.7071 20.9569C23.8946 20.7693 24 20.515 24 20.2498C24 19.9846 23.8946 19.7302 23.7071 19.5427C23.5196 19.3551 23.2652 19.2498 23 19.2498ZM7.333 21.9998C6.98688 21.9998 6.64854 21.8971 6.36075 21.7048C6.07297 21.5126 5.84866 21.2392 5.71621 20.9195C5.58376 20.5997 5.5491 20.2478 5.61663 19.9084C5.68415 19.5689 5.85082 19.2571 6.09556 19.0123C6.3403 18.7676 6.65213 18.6009 6.99159 18.5334C7.33106 18.4659 7.68293 18.5005 8.0027 18.633C8.32247 18.7654 8.59578 18.9897 8.78807 19.2775C8.98036 19.5653 9.083 19.9037 9.083 20.2498C9.08221 20.7137 8.89758 21.1583 8.56956 21.4863C8.24154 21.8143 7.79689 21.999 7.333 21.9998Z" fill="#1D6BF3"/>
</g>
<defs>
<clipPath id="clip0_324_12926">
<rect width="24" height="24" fill="white"/>
</clipPath>
</defs>
</svg>
