<svg width="23" height="21" viewBox="0 0 23 21" fill="none" xmlns="http://www.w3.org/2000/svg">
<path d="M21.6397 1.01274C21.355 0.77587 21.0114 0.62064 20.6454 0.56355C20.2795 0.50645 19.9049 0.54965 19.5616 0.68853L1.64066 7.92388C1.25741 8.0816 0.931184 8.3521 0.705264 8.6995C0.479344 9.0469 0.364434 9.4548 0.375764 9.8691C0.387104 10.2834 0.524164 10.6844 0.768744 11.0189C1.01332 11.3535 1.35386 11.6058 1.74516 11.7422L5.37016 13.003L7.39066 19.6846C7.41812 19.7739 7.45797 19.8588 7.50904 19.937C7.51679 19.949 7.52772 19.9579 7.53596 19.9696C7.59496 20.0519 7.66627 20.1247 7.74739 20.1854C7.77046 20.2029 7.79255 20.2194 7.81721 20.235C7.91214 20.298 8.01728 20.3441 8.12794 20.3712L8.13978 20.3722L8.14649 20.375C8.21302 20.3886 8.28074 20.3954 8.34864 20.3955C8.35517 20.3955 8.36097 20.3924 8.36744 20.3923C8.4699 20.3905 8.57147 20.3729 8.66853 20.34C8.69111 20.3323 8.71046 20.3194 8.73237 20.3101C8.80475 20.2801 8.87332 20.2417 8.93666 20.1956C8.98738 20.1528 9.0381 20.1101 9.0889 20.0674L11.791 17.084L15.8213 20.2061C16.1761 20.4823 16.6129 20.6325 17.0625 20.6328C17.5337 20.6322 17.9904 20.4697 18.3559 20.1724C18.7215 19.8751 18.9737 19.4612 19.0704 19L22.333 2.98345C22.407 2.62297 22.3815 2.24917 22.2594 1.90204C22.1373 1.55491 21.9231 1.24752 21.6397 1.01274ZM8.74516 13.3213C8.6065 13.4594 8.51172 13.6354 8.4727 13.8272L8.16319 15.3312L7.37913 12.7381L11.4444 10.6212L8.74516 13.3213ZM17.0469 18.625L12.2842 14.9356C12.085 14.7816 11.835 14.7083 11.5842 14.7304C11.3333 14.7525 11.1 14.8683 10.9307 15.0547L10.0653 16.0099L10.3711 14.5235L17.4541 7.44045C17.6232 7.27161 17.7262 7.04781 17.7445 6.80957C17.7628 6.57134 17.6951 6.33443 17.5538 6.14177C17.4125 5.9491 17.2069 5.81341 16.9742 5.75929C16.7414 5.70516 16.497 5.73617 16.2852 5.8467L6.11991 11.1393L2.39555 9.7764L20.374 2.58401L17.0469 18.625Z" fill="#B5B5B7"/>
</svg>
